<?xml version="1.0" standalone="no"?>
<!DOCTYPE svg PUBLIC "-//W3C//DTD SVG 20010904//EN"
 "http://www.w3.org/TR/2001/REC-SVG-20010904/DTD/svg10.dtd">
<svg version="1.0" xmlns="http://www.w3.org/2000/svg"
 width="139.000000pt" height="146.000000pt" viewBox="0 0 139.000000 146.000000"
 preserveAspectRatio="xMidYMid meet">
<metadata>
Created by potrace 1.16, written by Peter Selinger 2001-2019
</metadata>
<g transform="translate(0.000000,146.000000) scale(0.100000,-0.100000)"
fill="#000000" stroke="none">
<path d="M508 1187 l-157 -112 0 -392 -1 -391 132 -87 c72 -48 137 -89 144
-92 7 -3 115 64 239 149 l225 153 -2 110 -3 109 -72 51 c-40 27 -73 53 -73 57
0 5 29 27 65 50 l65 43 0 96 0 96 -192 133 c-106 73 -197 134 -203 136 -5 2
-81 -47 -167 -109z m262 -187 c49 -33 91 -63 93 -67 3 -5 -36 -36 -86 -70 -51
-34 -121 -82 -157 -107 -36 -25 -68 -46 -72 -46 -5 0 -8 60 -8 133 l1 132 62
42 c34 24 66 43 70 43 4 0 48 -27 97 -60z m75 -418 c28 -19 50 -38 50 -42 0
-4 -34 -32 -75 -62 -140 -100 -269 -188 -275 -188 -3 0 -4 41 -3 92 l3 91 114
78 c62 43 119 76 125 72 6 -4 34 -22 61 -41z"/>
</g>
</svg>
